<svg xmlns="http://www.w3.org/2000/svg" width="2000" height="400" xmlns:v="https://vecta.io/nano"><path d="M30.796 1026.936a.9.9 0 0 0-.122 1.76s2.192.725 5.924 1.028c2.997.243 6.394-.209 6.394-.209a.9.9 0 1 0-.227-1.777s-3.324.411-6.028.192c-3.562-.289-5.506-.941-5.506-.941a.9.9 0 0 0-.436-.052zm0-4.46a.9.9 0 0 0-.122 1.76s2.192.725 5.924 1.028c2.997.243 6.394-.209 6.394-.209a.9.9 0 1 0-.227-1.777s-3.324.411-6.028.192c-3.562-.289-5.506-.941-5.506-.941a.9.9 0 0 0-.436-.052zm0-4.46a.9.9 0 0 0-.122 1.76s2.192.725 5.924 1.028c2.997.243 6.394-.209 6.394-.209a.9.9 0 1 0-.227-1.777s-3.324.411-6.028.192c-3.562-.289-5.506-.941-5.506-.941a.9.9 0 0 0-.436-.052zm0-4.46a.9.9 0 0 0-.122 1.76s2.192.725 5.924 1.028c2.997.243 6.394-.209 6.394-.209a.9.9 0 1 0-.227-1.777s-3.324.411-6.028.192c-3.562-.289-5.506-.941-5.506-.941a.9.9 0 0 0-.436-.052zm-6.249-4.704c-4.687.031-6.434 1.475-6.434 1.475v35.004s1.705-1.473 7.195-1.248 6.623 2.149 13.37 2.285 8.443-1.037 8.443-1.037l.097-35.685s-3.036.859-8.946.908-7.329-1.503-12.754-1.685l-.972-.016zm3.922 2.285s2.84.939 8.087 1.199c4.434.22 8.881-.438 8.881-.438v31.714s-2.251 1.18-7.876.778c-4.36-.311-9.156-1.961-9.156-1.961l.065-31.293zm-2.739.826a.91.91 0 0 1 .908.908.91.91 0 0 1-.908.908s-1.469.008-2.366.097c-1.506.151-2.528.697-2.528.697-.287.151-.632.137-.905-.036s-.434-.479-.421-.802.197-.615.484-.766c0 0 1.333-.705 3.193-.891 1.074-.107 2.544-.113 2.544-.113zm-.875 4.473a16.38 16.38 0 0 1 .875 0c.455.055.797.441.797.899s-.342.844-.797.899l-2.366.097c-1.506.151-2.528.697-2.528.697-.443.233-.991.062-1.223-.381s-.062-.991.381-1.223c0 0 1.333-.705 3.193-.891l1.669-.097zm.875 4.457a.91.91 0 0 1 .908.908.91.91 0 0 1-.908.908s-1.469-.009-2.366.081c-1.506.151-2.528.697-2.528.697-.443.232-.991.062-1.223-.381s-.062-.991.38-1.223c0 0 1.333-.705 3.193-.891 1.074-.107 2.544-.097 2.544-.097zm37.65 17.959v-2.592l1.056-.096c.619-.064.928-.363.928-.896v-14.88l-1.824-.096v-2.72h8.736c2.475 0 4.373.459 5.696 1.376s1.984 2.421 1.984 4.512c0 1.451-.384 2.645-1.152 3.584-.747.939-1.643 1.621-2.688 2.048.768.277 1.376.928 1.824 1.952l2.304 5.024 1.824.064v2.72h-7.904v-2.592l.928-.096c.491-.064.736-.256.736-.576 0-.128-.043-.277-.128-.448l-1.504-3.2c-.235-.533-.501-.907-.8-1.12-.277-.235-.683-.352-1.216-.352h-2.912v5.568l2.08.096v2.72H63.38m5.888-11.424h2.784c2.624 0 3.936-1.173 3.936-3.52 0-1.344-.352-2.219-1.056-2.624-.683-.405-1.792-.608-3.328-.608h-2.336v6.752m21.042-5.152c1.6 0 2.869.395 3.808 1.184.939.768 1.408 1.856 1.408 3.264 0 .939-.203 1.771-.608 2.496-.405.704-.907 1.259-1.504 1.664s-1.323.736-2.176.992c-1.429.427-3.04.64-4.832.64.064 1.131.416 2.048 1.056 2.752.64.683 1.621 1.024 2.944 1.024s2.645-.469 3.968-1.408l1.216 2.592c-.427.384-1.152.779-2.176 1.184-1.003.405-2.155.608-3.456.608-2.603 0-4.512-.715-5.728-2.144-1.216-1.451-1.824-3.435-1.824-5.952s.693-4.629 2.08-6.336 3.328-2.56 5.824-2.56m-1.472 7.328a5.48 5.48 0 0 0 2.176-.928c.661-.491.992-1.067.992-1.728 0-1.301-.64-1.952-1.92-1.952-1.195 0-2.112.48-2.752 1.44-.64.939-.992 2.069-1.056 3.392a18.1 18.1 0 0 0 2.56-.224m22.025-6.208v11.904c0 .341.053.576.16.704.128.128.341.203.64.224l1.024.064v2.56h-5.088v-1.856l-.096-.032c-1.067 1.536-2.528 2.304-4.384 2.304-2.176 0-3.787-.693-4.832-2.08s-1.568-3.285-1.568-5.696c0-2.901.704-5.163 2.112-6.784s3.52-2.432 6.336-2.432c1.813 0 3.712.373 5.696 1.12m-3.712 10.368v-8.288c-.597-.277-1.419-.416-2.464-.416-1.429 0-2.464.576-3.104 1.728s-.96 2.677-.96 4.576c0 3.456 1.109 5.184 3.328 5.184.939 0 1.707-.277 2.304-.832.597-.576.896-1.227.896-1.952m13.97-11.488c.917 0 1.792.128 2.624.384v-3.232c0-.469-.277-.725-.832-.768l-1.376-.096v-2.528h5.952v19.456c.021.491.288.736.8.736l1.12.064v2.56h-5.184v-1.888l-.096-.032c-.96 1.557-2.411 2.336-4.352 2.336-2.432 0-4.139-.811-5.12-2.432-.896-1.472-1.344-3.275-1.344-5.408 0-2.773.683-4.992 2.048-6.656 1.387-1.664 3.307-2.496 5.76-2.496m2.624 11.584v-8.288a5.93 5.93 0 0 0-2.432-.512c-1.408 0-2.443.565-3.104 1.696-.64 1.131-.96 2.571-.96 4.32 0 3.584 1.152 5.376 3.456 5.376.875 0 1.6-.245 2.176-.736.576-.512.864-1.131.864-1.856m18.147 2.472s-1.484.56-2.268.56-1.092-.392-1.092-1.4c0-.448.056-1.036.168-1.764l1.204-7.476h3.864l.336-2.1h-3.864l.672-4.088-2.772.56-.56 3.528-2.8.28-.308 1.82h2.772l-1.232 7.756c-.112.644-.168 1.26-.168 1.792 0 2.212.924 3.332 2.828 3.332 1.568 0 3.668-1.288 3.668-1.288l-.448-1.512m8.68-19.04l-5.124.14-.252 1.54 2.352.56-3.08 19.32h2.66l.924-5.04s2.212-7.7 5.852-7.7c1.12 0 1.456.812 1.456 1.848 0 .392-.056.812-.112 1.232l-1.596 9.66 5.124-.28.252-1.54-2.352-.42 1.26-7.84c.084-.588.14-1.148.14-1.652 0-2.016-.812-3.388-3.052-3.388-4.256 0-6.496 5.404-6.608 5.712l2.156-12.152m20.126 18.34s-2.548 1.26-4.592 1.26c-2.1 0-3.08-.924-3.08-2.912a9.34 9.34 0 0 1 .084-1.204c5.796 0 9.828-2.184 9.828-5.404 0-2.212-1.792-3.64-4.62-3.64-4.452 0-8.092 4.564-8.092 10.36 0 3.08 1.96 5.04 5.04 5.04 3.304 0 6.272-2.072 6.272-2.072l-.84-1.428m-7.336-4.816c.728-2.94 2.772-4.984 4.816-4.984 1.428 0 2.1.588 2.1 1.82 0 1.848-2.94 3.164-6.916 3.164m14.281 8.036v-2.592l1.056-.096c.619-.064.928-.363.928-.896v-14.88l-1.824-.096v-2.72h8.768c3.136 0 5.579.832 7.328 2.496 1.771 1.664 2.656 4.128 2.656 7.392 0 2.027-.267 3.797-.8 5.312-.533 1.493-1.259 2.667-2.176 3.52-1.835 1.707-4.117 2.56-6.848 2.56h-9.088m5.888-18.176v15.104h3.264c1.835 0 3.264-.661 4.288-1.984s1.536-3.243 1.536-5.76c0-4.907-2.08-7.36-6.24-7.36h-2.848m22.096 15.84c2.325 0 3.488-1.877 3.488-5.632 0-1.899-.267-3.339-.8-4.32-.512-.981-1.387-1.472-2.624-1.472-1.216 0-2.112.469-2.688 1.408s-.864 2.219-.864 3.84c0 3.008.555 4.896 1.664 5.664.491.341 1.099.512 1.824.512m-7.36-5.728c0-1.579.235-2.944.704-4.096.469-1.173 1.099-2.069 1.888-2.688 1.515-1.152 3.189-1.728 5.024-1.728 1.28 0 2.357.213 3.232.64.896.405 1.589.885 2.08 1.44.512.533.939 1.323 1.28 2.368.363 1.024.544 2.24.544 3.648 0 2.944-.715 5.173-2.144 6.688s-3.264 2.272-5.504 2.272c-2.219 0-3.957-.715-5.216-2.144-1.259-1.451-1.888-3.584-1.888-6.4m20.161-.16c0 1.813.341 3.221 1.024 4.224s1.664 1.504 2.944 1.504c1.301 0 2.581-.459 3.84-1.376l1.376 2.464c-1.515 1.237-3.413 1.856-5.696 1.856s-4.085-.715-5.408-2.144c-1.301-1.451-1.952-3.584-1.952-6.4s.747-4.928 2.24-6.336c1.515-1.429 3.211-2.144 5.088-2.144 1.899 0 3.659.437 5.28 1.312v4.16l-2.944.224v-1.536c0-.576-.213-.928-.64-1.056a3.68 3.68 0 0 0-1.28-.224c-2.581 0-3.872 1.824-3.872 5.472m18.317-5.44c-.512-.192-1.131-.288-1.856-.288s-1.312.171-1.76.512c-.427.32-.64.725-.64 1.216 0 .469.075.843.224 1.12.171.256.427.48.768.672.533.277 1.173.523 1.92.736l1.664.48c.363.107.811.299 1.344.576.555.277.971.576 1.248.896.747.789 1.12 1.803 1.12 3.04 0 1.6-.587 2.859-1.76 3.776-1.152.896-2.624 1.344-4.416 1.344-2.603 0-4.565-.331-5.888-.992v-4.448l2.88-.224v1.536c0 .939.896 1.408 2.688 1.408s2.688-.651 2.688-1.952c0-.469-.16-.853-.48-1.152-.299-.299-.597-.501-.896-.608a11.77 11.77 0 0 0-1.088-.32l-1.216-.32-1.28-.416a11.79 11.79 0 0 1-1.504-.8c-1.088-.704-1.632-1.877-1.632-3.52 0-1.664.587-2.944 1.76-3.84s2.645-1.344 4.416-1.344c1.792 0 3.563.427 5.312 1.28v3.84l-2.88.224v-1.344a1.07 1.07 0 0 0-.736-1.088" transform="matrix(8.44628 0 0 8.44628 -100.757267 -8479.5213)" fill="#fafafa"/></svg>